<svg width="1091" height="312" viewBox="0 0 1091 312" fill="none" xmlns="http://www.w3.org/2000/svg">
<g filter="url(#filter0_d_613_24897)">
<path fill-rule="evenodd" clip-rule="evenodd" d="M48.0704 61.7257C45.9922 116.791 46.6896 145.347 49.3491 157.798C9.08896 226.089 114.424 304 207.084 304C299.923 304 394.303 224.311 366.097 157.402C365.588 154.223 364.98 151.062 364.273 147.925C365.508 132.21 365.52 105.219 363.976 61.9799C362.93 32.6596 356.798 5.90261 335.135 1.47542C312.735 -0.933737 280.902 17.7609 266.913 40.2311C249.156 34.2153 229.181 30.8641 207.084 30.8641C184.215 30.8641 163.056 34.3016 144.152 40.5275C130.058 18.4897 99.5002 0 78.0101 0C51.2456 0 49.099 34.4737 48.0704 61.7257Z" fill="#003777"/>
<path d="M15.7988 167.804L63.4344 173.54" stroke="#003777" stroke-width="3" stroke-linecap="round"/>
<path d="M399.193 166.34L351.558 172.076" stroke="#003777" stroke-width="3" stroke-linecap="round"/>
<path d="M409.495 196.423L352.053 196.423" stroke="#003777" stroke-width="3" stroke-linecap="round"/>
<path d="M5.49899 197.887L62.9416 197.887" stroke="#003777" stroke-width="3" stroke-linecap="round"/>
<path fill-rule="evenodd" clip-rule="evenodd" d="M57.3914 68.8302C55.4535 119.944 56.101 146.478 58.577 158.068C16.7606 219.664 119.319 293.963 205.83 293.963C292.495 293.963 389.613 215.095 354.269 157.736C354.269 156.162 354.233 154.596 354.161 153.037C355.778 139.047 355.973 112.994 354.273 68.8302C354.214 67.2931 354.16 65.7313 354.106 64.1534C353.266 39.7359 352.294 11.4717 328.826 11.4717C309.402 11.4717 282.267 30.8216 271.15 51.3429C251.792 44.1648 229.76 40.1511 205.83 40.1511C182.497 40.1511 161.071 43.9668 142.217 50.811C130.296 30.4885 102.094 11.4717 82.8382 11.4717C59.3443 11.4717 58.3829 39.7976 57.5534 64.2338L57.5534 64.2343C57.5008 65.7847 57.4487 67.3194 57.3914 68.8302Z" fill="white"/>
<path d="M118.058 64.4958C121.647 69.1517 114.79 73.8087 98.4379 88.9429C79.8295 106.165 79.9057 106.405 75.6129 72.3971C72.1224 44.7444 74.8539 28.9465 84.2674 31.899C96.1918 35.6391 102.799 44.7044 118.058 64.4958Z" fill="#FFE3E3"/>
<path d="M228.27 180.199C228.27 182.729 227.219 191.763 218.813 190.712C207.484 190.631 207.713 204.296 206.433 217.962C205.612 204.296 206.703 190.712 194.645 190.712C187.289 190.712 186.239 182.666 186.239 180.199C186.239 175.555 194.597 174.943 206.204 174.943C217.81 174.943 228.27 175.555 228.27 180.199Z" fill="#003777"/>
<ellipse cx="266.1" cy="152" rx="21.0157" ry="22.9434" fill="#003777"/>
<ellipse cx="148.41" cy="152" rx="21.0157" ry="22.9434" fill="#003777"/>
<ellipse cx="154.017" cy="147.698" rx="7.00524" ry="7.16982" fill="#F3EFEF"/>
<ellipse cx="140.004" cy="159.17" rx="4.20314" ry="4.30189" fill="#0452AE"/>
<ellipse cx="274.506" cy="159.17" rx="4.20314" ry="4.30189" fill="#0452AE"/>
<ellipse cx="260.495" cy="147.698" rx="7.00524" ry="7.16982" fill="#F3EFEF"/>
<ellipse cx="127.397" cy="195.019" rx="30.823" ry="14.3396" fill="#FFE9FB"/>
<ellipse cx="287.116" cy="195.019" rx="30.823" ry="14.3396" fill="#FFE9FB"/>
<path fill-rule="evenodd" clip-rule="evenodd" d="M355.086 141.851C348.95 142.866 342.622 143.396 336.153 143.396C279.668 143.396 233.877 102.95 233.877 53.0565C233.877 49.3165 234.134 45.6296 234.634 42.0089C247.296 43.7646 259.239 46.7273 270.32 50.7371C282.158 30.4425 310.063 11.4717 329.123 11.4717C352.381 11.4717 353.344 39.7358 354.176 64.1532V64.1534L354.176 64.1548C354.23 65.7322 354.283 67.2936 354.342 68.8302C355.653 103.176 355.827 126.568 355.086 141.851Z" fill="#C4C4C4"/>
<path d="M360.866 189.059C360.866 217.739 305.65 295.173 208.154 295.173C110.658 295.173 44.2298 220.607 51.2371 189.059C35.827 170.418 98.8752 271.019 208.154 271.019C313.235 271.019 360.866 186.423 360.866 189.059Z" fill="#F2F8FE"/>
<path d="M296.452 64.4959C292.862 69.1518 299.72 73.8088 316.072 88.9429C334.68 106.165 334.604 106.405 338.897 72.3973C342.387 44.7446 339.656 28.9468 330.242 31.8993C318.318 35.6394 311.711 44.7046 296.452 64.4959Z" fill="#FFE3E3"/>
<path fill-rule="evenodd" clip-rule="evenodd" d="M92.5176 94.3726C98.4189 87.2711 102.179 76.5381 102.179 64.5278C102.179 53.8667 99.2162 44.2121 94.423 37.2104C100.838 42.135 106.878 49.9774 116.278 62.1813C116.859 62.936 117.453 63.7074 118.061 64.4959C121.059 68.3846 116.77 72.274 105.747 82.268C103.573 84.2398 101.136 86.4491 98.4413 88.943C96.2117 91.0066 94.2504 92.8263 92.5176 94.3726Z" fill="#FCCECE"/>
<path fill-rule="evenodd" clip-rule="evenodd" d="M321.994 94.4458C316.093 87.3443 312.333 76.6113 312.333 64.601C312.333 53.94 315.296 44.2853 320.089 37.2837C313.674 42.2083 307.633 50.0507 298.234 62.2545C297.652 63.0093 297.058 63.7807 296.45 64.5691C293.452 68.4578 297.742 72.3473 308.764 82.3412C310.939 84.313 313.376 86.5224 316.07 89.0163C318.3 91.0798 320.261 92.8996 321.994 94.4458Z" fill="#FCCECE"/>
<path fill-rule="evenodd" clip-rule="evenodd" d="M271.696 195.019C300.326 195.019 323.535 171.265 323.535 141.962C323.535 112.66 300.326 88.9058 271.696 88.9058C243.066 88.9058 219.857 112.66 219.857 141.962C219.857 171.265 243.066 195.019 271.696 195.019ZM271.697 189.283C297.232 189.283 317.931 168.096 317.931 141.962C317.931 115.827 297.232 94.6411 271.697 94.6411C246.162 94.6411 225.462 115.827 225.462 141.962C225.462 168.096 246.162 189.283 271.697 189.283Z" fill="#757700"/>
<ellipse cx="271.703" cy="141.962" rx="46.2346" ry="47.3208" fill="#9C9AFF" fill-opacity="0.29"/>
<ellipse cx="324.945" cy="143.396" rx="7.00524" ry="8.60378" fill="#757700"/>
<ellipse cx="331.949" cy="143.397" rx="2.8021" ry="2.86793" fill="#757700"/>
<path d="M273.104 126.188L287.114 134.792" stroke="white" stroke-opacity="0.7" stroke-width="3" stroke-linecap="round"/>
<path d="M510.312 180.308C510.312 182.54 509.916 184.196 509.124 185.276C508.332 186.356 507.072 187.4 505.344 188.408C504.336 188.984 503.076 189.56 501.564 190.136C500.052 190.64 498.396 191.072 496.596 191.432C494.796 191.864 492.888 192.188 490.872 192.404C488.928 192.62 486.984 192.728 485.04 192.728C479.856 192.728 474.996 192.044 470.46 190.676C465.924 189.236 461.964 187.112 458.58 184.304C455.268 181.424 452.64 177.86 450.696 173.612C448.752 169.364 447.78 164.432 447.78 158.816C447.78 152.912 448.824 147.764 450.912 143.372C453.072 138.98 455.88 135.344 459.336 132.464C462.864 129.512 466.86 127.316 471.324 125.876C475.86 124.436 480.504 123.716 485.256 123.716C492.096 123.716 497.496 124.832 501.456 127.064C505.488 129.224 507.504 132.068 507.504 135.596C507.504 137.468 507.036 139.088 506.1 140.456C505.164 141.824 504.084 142.904 502.86 143.696C501.06 142.616 498.792 141.572 496.056 140.564C493.392 139.484 490.368 138.944 486.984 138.944C480.936 138.944 476.112 140.672 472.512 144.128C468.984 147.584 467.22 152.372 467.22 158.492C467.22 161.804 467.688 164.684 468.624 167.132C469.632 169.508 470.964 171.488 472.62 173.072C474.276 174.584 476.184 175.736 478.344 176.528C480.504 177.248 482.808 177.608 485.256 177.608C486.84 177.608 488.244 177.464 489.468 177.176C490.692 176.888 491.628 176.564 492.276 176.204V166.052H480.72C480.288 165.26 479.856 164.216 479.424 162.92C479.064 161.624 478.884 160.256 478.884 158.816C478.884 156.224 479.46 154.352 480.612 153.2C481.836 152.048 483.384 151.472 485.256 151.472H503.508C505.668 151.472 507.324 152.084 508.476 153.308C509.7 154.46 510.312 156.116 510.312 158.276V180.308ZM549.091 192.728C544.843 192.728 540.883 192.152 537.211 191C533.611 189.776 530.443 187.976 527.707 185.6C525.043 183.224 522.919 180.236 521.335 176.636C519.823 173.036 519.067 168.824 519.067 164C519.067 159.248 519.823 155.18 521.335 151.796C522.919 148.34 524.971 145.532 527.491 143.372C530.011 141.14 532.891 139.52 536.131 138.512C539.371 137.432 542.683 136.892 546.067 136.892C549.883 136.892 553.339 137.468 556.435 138.62C559.603 139.772 562.303 141.356 564.535 143.372C566.839 145.388 568.603 147.8 569.827 150.608C571.123 153.416 571.771 156.476 571.771 159.788C571.771 162.236 571.087 164.108 569.719 165.404C568.351 166.7 566.443 167.528 563.995 167.888L537.319 171.884C538.111 174.26 539.731 176.06 542.179 177.284C544.627 178.436 547.435 179.012 550.603 179.012C553.555 179.012 556.327 178.652 558.919 177.932C561.583 177.14 563.743 176.24 565.399 175.232C566.551 175.952 567.523 176.96 568.315 178.256C569.107 179.552 569.503 180.92 569.503 182.36C569.503 185.6 567.991 188.012 564.967 189.596C562.663 190.82 560.071 191.648 557.191 192.08C554.311 192.512 551.611 192.728 549.091 192.728ZM546.067 150.284C544.339 150.284 542.827 150.572 541.531 151.148C540.307 151.724 539.299 152.48 538.507 153.416C537.715 154.28 537.103 155.288 536.671 156.44C536.311 157.52 536.095 158.636 536.023 159.788L554.491 156.764C554.275 155.324 553.483 153.884 552.115 152.444C550.747 151.004 548.731 150.284 546.067 150.284ZM598.968 172.964C598.968 174.836 599.544 176.168 600.696 176.96C601.92 177.752 603.612 178.148 605.772 178.148C606.852 178.148 607.968 178.076 609.12 177.932C610.272 177.716 611.28 177.464 612.144 177.176C612.792 177.968 613.332 178.868 613.764 179.876C614.268 180.812 614.52 181.964 614.52 183.332C614.52 186.068 613.476 188.3 611.388 190.028C609.372 191.756 605.772 192.62 600.588 192.62C594.252 192.62 589.356 191.18 585.9 188.3C582.516 185.42 580.824 180.74 580.824 174.26V128.036C581.616 127.82 582.732 127.604 584.172 127.388C585.684 127.1 587.268 126.956 588.924 126.956C592.092 126.956 594.54 127.532 596.268 128.684C598.068 129.764 598.968 132.104 598.968 135.704V142.616H613.116C613.548 143.408 613.944 144.416 614.304 145.64C614.736 146.792 614.952 148.088 614.952 149.528C614.952 152.048 614.376 153.884 613.224 155.036C612.144 156.116 610.668 156.656 608.796 156.656H598.968V172.964ZM671.391 155.9C674.415 155.9 676.719 155.216 678.303 153.848C679.959 152.408 680.787 150.248 680.787 147.368C680.787 144.632 679.923 142.544 678.195 141.104C676.539 139.592 674.091 138.836 670.851 138.836C669.699 138.836 668.727 138.872 667.935 138.944C667.215 138.944 666.459 139.016 665.667 139.16V155.9H671.391ZM665.775 190.568C664.983 190.784 663.723 191 661.995 191.216C660.339 191.432 658.683 191.54 657.027 191.54C655.371 191.54 653.895 191.396 652.599 191.108C651.375 190.892 650.331 190.46 649.467 189.812C648.603 189.164 647.955 188.264 647.523 187.112C647.091 185.96 646.875 184.448 646.875 182.576V131.708C646.875 130.196 647.271 129.044 648.063 128.252C648.927 127.388 650.079 126.704 651.519 126.2C653.967 125.336 656.739 124.724 659.835 124.364C663.003 123.932 666.171 123.716 669.339 123.716C679.275 123.716 686.871 125.84 692.127 130.088C697.383 134.336 700.011 140.096 700.011 147.368C700.011 150.896 699.435 154.1 698.283 156.98C697.203 159.788 695.547 162.236 693.315 164.324C691.155 166.34 688.383 167.924 684.999 169.076C681.687 170.156 677.835 170.696 673.443 170.696H665.775V190.568ZM729.635 179.336C730.859 179.336 732.191 179.228 733.631 179.012C735.143 178.724 736.259 178.364 736.979 177.932V169.292L729.203 169.94C727.187 170.084 725.531 170.516 724.235 171.236C722.939 171.956 722.291 173.036 722.291 174.476C722.291 175.916 722.831 177.104 723.911 178.04C725.063 178.904 726.971 179.336 729.635 179.336ZM728.771 136.892C732.659 136.892 736.187 137.288 739.355 138.08C742.595 138.872 745.331 140.096 747.563 141.752C749.867 143.336 751.631 145.388 752.855 147.908C754.079 150.356 754.691 153.272 754.691 156.656V180.848C754.691 182.72 754.151 184.268 753.071 185.492C752.063 186.644 750.839 187.652 749.399 188.516C744.719 191.324 738.131 192.728 729.635 192.728C725.819 192.728 722.363 192.368 719.267 191.648C716.243 190.928 713.615 189.848 711.383 188.408C709.223 186.968 707.531 185.132 706.307 182.9C705.155 180.668 704.579 178.076 704.579 175.124C704.579 170.156 706.055 166.34 709.007 163.676C711.959 161.012 716.531 159.356 722.723 158.708L736.871 157.196V156.44C736.871 154.352 735.935 152.876 734.063 152.012C732.263 151.076 729.635 150.608 726.179 150.608C723.443 150.608 720.779 150.896 718.187 151.472C715.595 152.048 713.255 152.768 711.167 153.632C710.231 152.984 709.439 152.012 708.791 150.716C708.143 149.348 707.819 147.944 707.819 146.504C707.819 144.632 708.251 143.156 709.115 142.076C710.051 140.924 711.455 139.952 713.327 139.16C715.415 138.368 717.863 137.792 720.671 137.432C723.551 137.072 726.251 136.892 728.771 136.892ZM784.277 172.964C784.277 174.836 784.853 176.168 786.005 176.96C787.229 177.752 788.921 178.148 791.081 178.148C792.161 178.148 793.277 178.076 794.429 177.932C795.581 177.716 796.589 177.464 797.453 177.176C798.101 177.968 798.641 178.868 799.073 179.876C799.577 180.812 799.829 181.964 799.829 183.332C799.829 186.068 798.785 188.3 796.697 190.028C794.681 191.756 791.081 192.62 785.897 192.62C779.561 192.62 774.665 191.18 771.209 188.3C767.825 185.42 766.133 180.74 766.133 174.26V128.036C766.925 127.82 768.041 127.604 769.481 127.388C770.993 127.1 772.577 126.956 774.233 126.956C777.401 126.956 779.849 127.532 781.577 128.684C783.377 129.764 784.277 132.104 784.277 135.704V142.616H798.425C798.857 143.408 799.253 144.416 799.613 145.64C800.045 146.792 800.261 148.088 800.261 149.528C800.261 152.048 799.685 153.884 798.533 155.036C797.453 156.116 795.977 156.656 794.105 156.656H784.277V172.964Z" fill="#003777"/>
<path d="M850.544 177.5C851.552 177.788 852.848 178.004 854.432 178.148C856.016 178.22 857.528 178.256 858.968 178.256C861.848 178.256 864.224 177.68 866.096 176.528C868.04 175.304 869.012 173.432 869.012 170.912C869.012 168.536 868.22 166.844 866.636 165.836C865.052 164.828 862.64 164.324 859.4 164.324H850.544V177.5ZM850.544 151.148H858.428C861.524 151.148 863.756 150.572 865.124 149.42C866.564 148.268 867.284 146.576 867.284 144.344C867.284 142.4 866.456 140.852 864.8 139.7C863.216 138.548 860.804 137.972 857.564 137.972C856.484 137.972 855.224 138.008 853.784 138.08C852.416 138.152 851.336 138.26 850.544 138.404V151.148ZM857.564 192.728C856.34 192.728 854.9 192.692 853.244 192.62C851.588 192.548 849.86 192.404 848.06 192.188C846.332 191.972 844.604 191.684 842.876 191.324C841.148 191.036 839.564 190.604 838.124 190.028C834.164 188.516 832.184 185.888 832.184 182.144V131.708C832.184 130.196 832.58 129.044 833.372 128.252C834.236 127.388 835.388 126.704 836.828 126.2C839.276 125.336 842.336 124.724 846.008 124.364C849.68 123.932 853.46 123.716 857.348 123.716C866.564 123.716 873.656 125.264 878.624 128.36C883.592 131.456 886.076 136.244 886.076 142.724C886.076 145.964 885.14 148.772 883.268 151.148C881.396 153.452 878.876 155.144 875.708 156.224C879.308 157.232 882.296 159.068 884.672 161.732C887.12 164.396 888.344 167.744 888.344 171.776C888.344 178.904 885.68 184.196 880.352 187.652C875.096 191.036 867.5 192.728 857.564 192.728ZM920.111 179.336C921.335 179.336 922.667 179.228 924.107 179.012C925.619 178.724 926.735 178.364 927.455 177.932V169.292L919.679 169.94C917.663 170.084 916.007 170.516 914.711 171.236C913.415 171.956 912.767 173.036 912.767 174.476C912.767 175.916 913.307 177.104 914.387 178.04C915.539 178.904 917.447 179.336 920.111 179.336ZM919.247 136.892C923.135 136.892 926.663 137.288 929.831 138.08C933.071 138.872 935.807 140.096 938.039 141.752C940.343 143.336 942.107 145.388 943.331 147.908C944.555 150.356 945.167 153.272 945.167 156.656V180.848C945.167 182.72 944.627 184.268 943.547 185.492C942.539 186.644 941.315 187.652 939.875 188.516C935.195 191.324 928.607 192.728 920.111 192.728C916.295 192.728 912.839 192.368 909.743 191.648C906.719 190.928 904.091 189.848 901.859 188.408C899.699 186.968 898.007 185.132 896.783 182.9C895.631 180.668 895.055 178.076 895.055 175.124C895.055 170.156 896.531 166.34 899.483 163.676C902.435 161.012 907.007 159.356 913.199 158.708L927.347 157.196V156.44C927.347 154.352 926.411 152.876 924.539 152.012C922.739 151.076 920.111 150.608 916.655 150.608C913.919 150.608 911.255 150.896 908.663 151.472C906.071 152.048 903.731 152.768 901.643 153.632C900.707 152.984 899.915 152.012 899.267 150.716C898.619 149.348 898.295 147.944 898.295 146.504C898.295 144.632 898.727 143.156 899.591 142.076C900.527 140.924 901.931 139.952 903.803 139.16C905.891 138.368 908.339 137.792 911.147 137.432C914.027 137.072 916.727 136.892 919.247 136.892ZM985.985 151.364C984.185 151.364 982.457 151.652 980.801 152.228C979.217 152.804 977.813 153.668 976.589 154.82C975.437 155.9 974.501 157.268 973.781 158.924C973.061 160.58 972.701 162.524 972.701 164.756C972.701 169.22 973.961 172.568 976.481 174.8C979.073 177.032 982.205 178.148 985.877 178.148C988.037 178.148 989.909 177.896 991.493 177.392C993.077 176.888 994.481 176.348 995.705 175.772C997.145 176.78 998.225 177.896 998.945 179.12C999.665 180.272 1000.03 181.676 1000.03 183.332C1000.03 186.284 998.621 188.588 995.813 190.244C993.005 191.828 989.117 192.62 984.149 192.62C979.613 192.62 975.509 191.972 971.837 190.676C968.165 189.308 964.997 187.436 962.333 185.06C959.741 182.612 957.725 179.696 956.285 176.312C954.845 172.928 954.125 169.184 954.125 165.08C954.125 160.328 954.881 156.188 956.393 152.66C957.977 149.06 960.101 146.108 962.765 143.804C965.429 141.5 968.489 139.772 971.945 138.62C975.473 137.468 979.181 136.892 983.069 136.892C988.253 136.892 992.249 137.828 995.057 139.7C997.865 141.572 999.269 143.984 999.269 146.936C999.269 148.304 998.945 149.6 998.297 150.824C997.649 151.976 996.893 152.984 996.029 153.848C994.805 153.272 993.329 152.732 991.601 152.228C989.873 151.652 988.001 151.364 985.985 151.364ZM1060.53 181.496C1060.17 184.88 1059.17 187.472 1057.51 189.272C1055.93 191.072 1053.59 191.972 1050.49 191.972C1048.19 191.972 1046.13 191.432 1044.33 190.352C1042.53 189.2 1040.59 187.292 1038.5 184.628L1027.81 171.236V190.892C1027.02 191.036 1025.83 191.216 1024.25 191.432C1022.73 191.72 1021.19 191.864 1019.6 191.864C1018.02 191.864 1016.58 191.756 1015.28 191.54C1014.06 191.324 1013.01 190.892 1012.15 190.244C1011.29 189.596 1010.6 188.732 1010.1 187.652C1009.67 186.5 1009.45 185.024 1009.45 183.224V120.692C1010.24 120.476 1011.39 120.26 1012.91 120.044C1014.49 119.756 1016.07 119.612 1017.66 119.612C1019.24 119.612 1020.65 119.72 1021.87 119.936C1023.17 120.152 1024.25 120.584 1025.11 121.232C1025.97 121.88 1026.62 122.78 1027.05 123.932C1027.56 125.012 1027.81 126.452 1027.81 128.252V156.764L1046.39 137.756C1050.13 137.756 1053.12 138.584 1055.35 140.24C1057.65 141.896 1058.81 143.984 1058.81 146.504C1058.81 147.584 1058.63 148.592 1058.27 149.528C1057.91 150.392 1057.33 151.292 1056.54 152.228C1055.82 153.164 1054.85 154.172 1053.62 155.252C1052.47 156.26 1051.1 157.448 1049.52 158.816L1043.25 164.216L1060.53 181.496Z" fill="#757700"/>
</g>
<defs>
<filter id="filter0_d_613_24897" x="0" y="0" width="1064.53" height="312" filterUnits="userSpaceOnUse" color-interpolation-filters="sRGB">
<feFlood flood-opacity="0" result="BackgroundImageFix"/>
<feColorMatrix in="SourceAlpha" type="matrix" values="0 0 0 0 0 0 0 0 0 0 0 0 0 0 0 0 0 0 127 0" result="hardAlpha"/>
<feOffset dy="4"/>
<feGaussianBlur stdDeviation="2"/>
<feComposite in2="hardAlpha" operator="out"/>
<feColorMatrix type="matrix" values="0 0 0 0 0 0 0 0 0 0 0 0 0 0 0 0 0 0 0.25 0"/>
<feBlend mode="normal" in2="BackgroundImageFix" result="effect1_dropShadow_613_24897"/>
<feBlend mode="normal" in="SourceGraphic" in2="effect1_dropShadow_613_24897" result="shape"/>
</filter>
</defs>
</svg>
